:FULLY-SPECIFIED
:FORCE-ALL-JOINTS-BE-3DOF
:DEGREES
275
root 9.83611 16.7061 1.73668 6.64735 -1.47014 1.68481
lfemur -17.7702 6.08846 -27.4077
ltibia 28.0251 -0 0
lfoot -15.6937 4.93343 0.0117591
ltoes -3.54776 0 0
rfemur -21.1612 0.469208 17.1073
rtibia 42.0802 -0 0
rfoot -11.3406 -6.97154 1.00704
rtoes -21.2554 0 0
lowerback -5.64266 -1.63504 -3.20472
upperback -1.05847 -2.02591 2.03031
thorax 2.34977 -1.0506 3.69648
lowerneck -20.745 -4.43028 -12.2439
upperneck 21.1478 -5.39682 12.2646
head 10.9767 -2.01006 5.73128
lclavicle 3.13086e-14 9.54166e-15 0
lhumerus -23.4155 -14.1798 87.7521
lradius 24.0796 -0 0
lwrist -0.113657 0 0
lhand -13.3693 -23.907 0.032555
lfingers 7.12502 -0 0
lthumb 12.7347 5.64234 0.0217187
rclavicle 3.13086e-14 9.54166e-15 0
rhumerus -46.9599 7.79045 -84.1129
rradius 40.8738 -0 0
rwrist -22.7599 0 0
rhand -29.5349 -21.7331 -0.00123099
rfingers 7.12502 -0 0
rthumb -2.86829 -51.6934 -0.00119585
276
root 9.85327 16.7186 1.86657 6.54123 -1.31016 1.80464
lfemur -16.8553 5.99553 -27.5586
ltibia 27.5225 -0 0
lfoot -15.9656 4.91981 0.0112419
ltoes -3.65066 0 0
rfemur -22.2803 0.411162 17.0245
rtibia 42.4832 -0 0
rfoot -12.0881 -7.39648 0.962483
rtoes -21.4655 0 0
lowerback -5.61311 -1.76615 -3.29597
upperback -0.987008 -2.19679 2.03733
thorax 2.42208 -1.13888 3.74289
lowerneck -20.8252 -4.37828 -12.184
upperneck 21.2772 -5.32341 12.1843
head 11.023 -1.97896 5.70658
lclavicle 3.13086e-14 9.54166e-15 0
lhumerus -22.6005 -14.5079 87.6649
lradius 24.2268 -0 0
lwrist 0.143072 0 0
lhand -13.5838 -23.9548 0.0311234
lfingers 7.12502 -0 0
lthumb 12.528 5.60926 0.0207637
rclavicle 3.13086e-14 9.54166e-15 0
rhumerus -46.9657 7.7744 -84.017
rradius 40.885 -0 0
rwrist -22.7896 0 0
rhand -29.5486 -21.7048 -0.00117688
rfingers 7.12502 -0 0
rthumb -2.8815 -51.6649 -0.00114329
277
root 9.87043 16.731 1.99646 6.43546 -1.14996 1.92416
lfemur -15.9402 5.90501 -27.7108
ltibia 27.0198 -0 0
lfoot -16.2374 4.90619 0.01066
ltoes -3.75357 0 0
rfemur -23.3992 0.351511 16.9429
rtibia 42.8863 -0 0
rfoot -12.8351 -7.8208 0.912389
rtoes -21.6755 0 0
lowerback -5.58335 -1.89722 -3.3873
upperback -0.915557 -2.36767 2.04414
thorax 2.49433 -1.22722 3.78919
lowerneck -20.9054 -4.3262 -12.1242
upperneck 21.4064 -5.24981 12.1041
head 11.0693 -1.94785 5.6819
lclavicle 3.13086e-14 9.54166e-15 0
lhumerus -21.7839 -14.8348 87.5728
lradius 24.3741 -0 0
lwrist 0.399801 0 0
lhand -13.7984 -24.0025 0.0295129
lfingers 7.12502 -0 0
lthumb 12.3213 5.57619 0.0196893
rclavicle 3.13086e-14 9.54166e-15 0
rhumerus -46.9715 7.75837 -83.921
rradius 40.8961 -0 0
rwrist -22.8192 0 0
rhand -29.5623 -21.6764 -0.00111601
rfingers 7.12502 -0 0
rthumb -2.89471 -51.6364 -0.00108415
278
root 9.88759 16.7434 2.12636 6.33002 -0.989537 2.04339
lfemur -15.0251 5.81692 -27.8645
ltibia 26.5172 -0 0
lfoot -16.5093 4.89258 0.0100136
ltoes -3.85647 0 0
rfemur -24.5181 0.290277 16.8624
rtibia 43.2894 -0 0
rfoot -13.5818 -8.24443 0.856769
rtoes -21.8855 0 0
lowerback -5.55338 -2.02823 -3.4787
upperback -0.844117 -2.53856 2.05074
thorax 2.5665 -1.31562 3.83538
lowerneck -20.9855 -4.27403 -12.0644
upperneck 21.5355 -5.17603 12.0241
head 11.1156 -1.91671 5.65725
lclavicle 3.13086e-14 9.54166e-15 0
lhumerus -20.9654 -15.1605 87.4758
lradius 24.5213 -0 0
lwrist 0.65653 0 0
lhand -14.013 -24.0503 0.0277235
lfingers 7.12502 -0 0
lthumb 12.1146 5.54312 0.0184956
rclavicle 3.13086e-14 9.54166e-15 0
rhumerus -46.9773 7.74234 -83.8251
rradius 40.9073 -0 0
rwrist -22.8489 0 0
rhand -29.576 -21.6481 -0.00104837
rfingers 7.12502 -0 0
rthumb -2.90792 -51.6079 -0.00101844
279
root 9.90475 16.7558 2.25625 6.22492 -0.828897 2.16231
lfemur -14.1098 5.73128 -28.0196
ltibia 26.0145 -0 0
lfoot -16.7812 4.87897 0.00930258
ltoes -3.95938 0 0
rfemur -25.6369 0.227485 16.7832
rtibia 43.6924 -0 0
rfoot -14.328 -8.66729 0.795636
rtoes -22.0955 0 0
lowerback -5.5232 -2.1592 -3.57018
upperback -0.772687 -2.70945 2.05713
thorax 2.63861 -1.40408 3.88145
lowerneck -21.0656 -4.22178 -12.0047
upperneck 21.6645 -5.10208 11.9443
head 11.1619 -1.88556 5.63262
lclavicle 3.13086e-14 9.54166e-15 0
lhumerus -20.1451 -15.4847 87.3737
lradius 24.6686 -0 0
lwrist 0.913259 0 0
lhand -14.2275 -24.0981 0.0257554
lfingers 7.12502 -0 0
lthumb 11.9078 5.51005 0.0171826
rclavicle 3.13086e-14 9.54166e-15 0
rhumerus -46.9832 7.72632 -83.7292
rradius 40.9185 -0 0
rwrist -22.8785 0 0
rhand -29.5897 -21.6198 -0.000973969
rfingers 7.12502 -0 0
rthumb -2.92114 -51.5794 -0.000946166
280
root 9.92191 16.7682 2.38615 6.12016 -0.668039 2.28093
lfemur -13.1945 5.64812 -28.1759
ltibia 25.5119 -0 0
lfoot -17.053 4.86536 0.00852698
ltoes -4.06229 0 0
rfemur -26.7556 0.163157 16.7052
rtibia 44.0955 -0 0
rfoot -15.0737 -9.08931 0.729003
rtoes -22.3055 0 0
lowerback -5.49281 -2.29012 -3.66173
upperback -0.701266 -2.88036 2.06331
thorax 2.71065 -1.49259 3.92742
lowerneck -21.1456 -4.16945 -11.9451
upperneck 21.7934 -5.02794 11.8646
head 11.2081 -1.85438 5.60802
lclavicle 3.13086e-14 9.54166e-15 0
lhumerus -19.3229 -15.8075 87.2667
lradius 24.8158 -0 0
lwrist 1.16999 0 0
lhand -14.4421 -24.1458 0.0236084
lfingers 7.12502 -0 0
lthumb 11.7011 5.47699 0.0157503
rclavicle 3.13086e-14 9.54166e-15 0
rhumerus -46.9891 7.71031 -83.6333
rradius 40.9297 -0 0
rwrist -22.9082 0 0
rhand -29.6033 -21.5915 -0.000892804
rfingers 7.12502 -0 0
rthumb -2.93435 -51.5509 -0.000867318
281
root 9.93907 16.7806 2.51604 6.01574 -0.506966 2.39926
lfemur -12.2791 5.56745 -28.3336
ltibia 25.0092 -0 0
lfoot -17.3249 4.85176 0.00768682
ltoes -4.16519 0 0
rfemur -27.8742 0.0973188 16.6285
rtibia 44.4986 -0 0
rfoot -15.8189 -9.51042 0.656885
rtoes -22.5155 0 0
lowerback -5.46221 -2.42099 -3.75337
upperback -0.629852 -3.05127 2.06927
thorax 2.78262 -1.58117 3.97328
lowerneck -21.2255 -4.11704 -11.8856
upperneck 21.9222 -4.95363 11.7852
head 11.2544 -1.82319 5.58344
lclavicle 3.13086e-14 9.54166e-15 0
lhumerus -18.4987 -16.1288 87.1547
lradius 24.9631 -0 0
lwrist 1.42672 0 0
lhand -14.6566 -24.1935 0.0212826
lfingers 7.12502 -0 0
lthumb 11.4944 5.44393 0.0141987
rclavicle 3.13086e-14 9.54166e-15 0
rhumerus -46.995 7.69432 -83.5373
rradius 40.9408 -0 0
rwrist -22.9378 0 0
rhand -29.617 -21.5632 -0.000804876
rfingers 7.12502 -0 0
rthumb -2.94756 -51.5224 -0.0007819
282
root 9.95623 16.793 2.64594 5.91165 -0.345676 2.51729
lfemur -11.3635 5.4893 -28.4926
ltibia 24.5066 -0 0
lfoot -17.5967 4.83816 0.00678213
ltoes -4.2681 0 0
rfemur -28.9927 0.0299956 16.5531
rtibia 44.9016 -0 0
rfoot -16.5636 -9.93055 0.5793
rtoes -22.7255 0 0
lowerback -5.43139 -2.55182 -3.84508
upperback -0.558444 -3.22219 2.07502
thorax 2.85453 -1.6698 4.01903
lowerneck -21.3054 -4.06454 -11.8261
upperneck 22.0508 -4.87914 11.7059
head 11.3006 -1.79197 5.55889
lclavicle 3.13086e-14 9.54166e-15 0
lhumerus -17.6726 -16.4485 87.0378
lradius 25.1103 -0 0
lwrist 1.68345 0 0
lhand -14.8712 -24.2413 0.0187782
lfingers 7.12502 -0 0
lthumb 11.2877 5.41088 0.0125279
rclavicle 3.13086e-14 9.54166e-15 0
rhumerus -47.0009 7.67833 -83.4414
rradius 40.952 -0 0
rwrist -22.9675 0 0
rhand -29.6307 -21.5348 -0.000710184
rfingers 7.12502 -0 0
rthumb -2.96078 -51.494 -0.000689911
283
root 9.9734 16.8054 2.77583 5.80789 -0.184174 2.63502
lfemur -10.4479 5.41369 -28.6527
ltibia 24.0039 -0 0
lfoot -17.8686 4.82457 0.00581293
ltoes -4.371 0 0
rfemur -30.1112 -0.0387869 16.479
rtibia 45.3047 -0 0
rfoot -17.3076 -10.3496 0.496263
rtoes -22.9355 0 0
lowerback -5.40036 -2.68259 -3.93687
upperback -0.487041 -3.39312 2.08056
thorax 2.92636 -1.75848 4.06467
lowerneck -21.3852 -4.01196 -11.7667
upperneck 22.1793 -4.80447 11.6268
head 11.3468 -1.76074 5.53436
lclavicle 3.13086e-14 9.54166e-15 0
lhumerus -16.8444 -16.7665 86.9158
lradius 25.2576 -0 0
lwrist 1.94017 0 0
lhand -15.0857 -24.289 0.016095
lfingers 7.12502 -0 0
lthumb 11.081 5.37784 0.0107378
rclavicle 3.13086e-14 9.54166e-15 0
rhumerus -47.0069 7.66235 -83.3455
rradius 40.9632 -0 0
rwrist -22.9971 0 0
rhand -29.6444 -21.5065 -0.000608729
rfingers 7.12502 -0 0
rthumb -2.97399 -51.4655 -0.000591352
284
root 9.99056 16.8179 2.90572 5.70447 -0.0224584 2.75247
lfemur -9.53218 5.34064 -28.814
ltibia 23.5013 -0 0
lfoot -18.1405 4.81098 0.00477923
ltoes -4.47391 0 0
rfemur -31.2295 -0.109002 16.4062
rtibia 45.7077 -0 0
rfoot -18.051 -10.7676 0.407793
rtoes -23.1456 0 0
lowerback -5.36911 -2.81331 -4.02875
upperback -0.415642 -3.56405 2.08588
thorax 2.99813 -1.84723 4.1102
lowerneck -21.465 -3.9593 -11.7074
upperneck 22.3077 -4.72962 11.5479
head 11.393 -1.72948 5.50986
lclavicle 3.13086e-14 9.54166e-15 0
lhumerus -16.014 -17.0829 86.7888
lradius 25.4048 -0 0
lwrist 2.1969 0 0
lhand -15.3002 -24.3367 0.0132331
lfingers 7.12502 -0 0
lthumb 10.8742 5.3448 0.00882857
rclavicle 3.13086e-14 9.54166e-15 0
rhumerus -47.0129 7.64638 -83.2496
rradius 40.9743 -0 0
rwrist -23.0268 0 0
rhand -29.6581 -21.4782 -0.00050051
rfingers 7.12502 -0 0
rthumb -2.9872 -51.437 -0.000486223
285
root 10.0077 16.8303 3.03562 5.60138 0.139468 2.86962
lfemur -8.61636 5.27016 -28.9765
ltibia 22.9986 -0 0
lfoot -18.4123 4.79739 0.00368106
ltoes -4.57681 0 0
rfemur -32.3477 -0.180624 16.3349
rtibia 46.1108 -0 0
rfoot -18.7938 -11.1844 0.313911
rtoes -23.3556 0 0
lowerback -5.33766 -2.94399 -4.1207
upperback -0.344245 -3.73499 2.091
thorax 3.06983 -1.93603 4.15562
lowerneck -21.5447 -3.90655 -11.6482
upperneck 22.436 -4.6546 11.4691
head 11.4392 -1.69821 5.48539
lclavicle 3.13086e-14 9.54166e-15 0
lhumerus -15.1816 -17.3974 86.6568
lradius 25.5521 -0 0
lwrist 2.45363 0 0
lhand -15.5148 -24.3844 0.0101927
lfingers 7.12502 -0 0
lthumb 10.6675 5.31177 0.00680013
rclavicle 3.13086e-14 9.54166e-15 0
rhumerus -47.019 7.63042 -83.1536
rradius 40.9855 -0 0
rwrist -23.0564 0 0
rhand -29.6718 -21.4499 -0.000385528
rfingers 7.12502 -0 0
rthumb -3.00041 -51.4085 -0.000374522
286
root 10.0249 16.8427 3.16551 5.49862 0.301605 2.98648
lfemur -7.70044 5.20228 -29.14
ltibia 22.496 -0 0
lfoot -18.6842 4.78381 0.00251845
ltoes -4.67972 0 0
rfemur -33.4659 -0.253625 16.2649
rtibia 46.5139 -0 0
rfoot -19.5358 -11.5999 0.214636
rtoes -23.5656 0 0
lowerback -5.30598 -3.07461 -4.21274
upperback -0.272849 -3.90594 2.0959
thorax 3.14147 -2.02489 4.20094
lowerneck -21.6243 -3.85373 -11.5891
upperneck 22.5642 -4.57941 11.3905
head 11.4854 -1.66692 5.46094
lclavicle 3.13086e-14 9.54166e-15 0
lhumerus -14.3469 -17.7101 86.5198
lradius 25.6993 -0 0
lwrist 2.71036 0 0
lhand -15.7293 -24.4321 0.00697362
lfingers 7.12502 -0 0
lthumb 10.4608 5.27875 0.00465253
rclavicle 3.13086e-14 9.54166e-15 0
rhumerus -47.025 7.61448 -83.0577
rradius 40.9967 -0 0
rwrist -23.0861 0 0
rhand -29.6854 -21.4215 -0.000263782
rfingers 7.12502 -0 0
rthumb -3.01363 -51.38 -0.000256252
287
root 10.042 16.8551 3.29541 5.39618 0.463951 3.10305
lfemur -6.78443 5.13701 -29.3046
ltibia 21.9933 -0 0
lfoot -18.956 4.77024 0.00129142
ltoes -4.78262 0 0
rfemur -34.584 -0.327976 16.1964
rtibia 46.9169 -0 0
rfoot -20.2771 -12.0141 0.109992
rtoes -23.7756 0 0
lowerback -5.2741 -3.20518 -4.30486
upperback -0.201453 -4.07689 2.10058
thorax 3.21304 -2.1138 4.24614
lowerneck -21.7039 -3.80082 -11.53
upperneck 22.6923 -4.50404 11.3121
head 11.5316 -1.6356 5.43652
lclavicle 3.13086e-14 9.54166e-15 0
lhumerus -13.51 -18.0208 86.3778
lradius 25.8466 -0 0
lwrist 2.96709 0 0
lhand -15.9439 -24.4797 0.00357605
lfingers 7.12502 -0 0
lthumb 10.2541 5.24574 0.00238581
rclavicle 3.13086e-14 9.54166e-15 0
rhumerus -47.0311 7.59854 -82.9618
rradius 41.0078 -0 0
rwrist -23.1157 0 0
rhand -29.6991 -21.3932 -0.000135273
rfingers 7.12502 -0 0
rthumb -3.02684 -51.3515 -0.000131411
